<svg xmlns="http://www.w3.org/2000/svg" xmlns:xlink="http://www.w3.org/1999/xlink" width="378" zoomAndPan="magnify" viewBox="0 0 283.5 279.749991" height="373" preserveAspectRatio="xMidYMid meet" version="1.0"><defs><clipPath id="8fec1b5189"><path d="M 99 0.167969 L 224 0.167969 L 224 105 L 99 105 Z M 99 0.167969 " clip-rule="nonzero"/></clipPath><clipPath id="17f6f14323"><path d="M 179 142 L 190 142 L 190 179.234375 L 179 179.234375 Z M 179 142 " clip-rule="nonzero"/></clipPath><clipPath id="9b56664081"><path d="M 139 142 L 150 142 L 150 179.234375 L 139 179.234375 Z M 139 142 " clip-rule="nonzero"/></clipPath><clipPath id="94e4836bdc"><path d="M 166 145 L 177 145 L 177 179.234375 L 166 179.234375 Z M 166 145 " clip-rule="nonzero"/></clipPath><clipPath id="669ef002d1"><path d="M 152 154 L 163 154 L 163 179.234375 L 152 179.234375 Z M 152 154 " clip-rule="nonzero"/></clipPath><clipPath id="2270e963ac"><path d="M 193 159 L 203.550781 159 L 203.550781 179.234375 L 193 179.234375 Z M 193 159 " clip-rule="nonzero"/></clipPath><clipPath id="62945223bd"><path d="M 79.273438 162 L 88 162 L 88 172 L 79.273438 172 Z M 79.273438 162 " clip-rule="nonzero"/></clipPath><clipPath id="cdcd414344"><path d="M 107 99.875 L 124 99.875 L 124 128 L 107 128 Z M 107 99.875 " clip-rule="nonzero"/></clipPath></defs><path fill="#ffffff" d="M 22.632812 71.488281 C 35.058594 62.71875 48.15625 57.066406 61.894531 50.824219 C 74.699219 45.015625 88.101562 42.671875 101.964844 42.53125 C 123.300781 42.320312 142.375 47.613281 161.613281 56.453125 C 164.628906 57.832031 170.046875 59.816406 173.160156 59.410156 C 171.667969 50.335938 164.992188 43.4375 158.136719 38.832031 C 145.585938 30.382812 131.355469 25.972656 116.570312 24.6875 C 95.429688 22.84375 75.3125 26.140625 55.875 34.964844 C 29.402344 47.152344 20.550781 63.769531 18.972656 69.703125 C 17.882812 73.777344 21.109375 72.773438 22.632812 71.488281 Z M 22.632812 71.488281 " fill-opacity="1" fill-rule="evenodd"/><path fill="#ffffff" d="M 47.273438 96.902344 C 62.550781 82.003906 79.976562 72.632812 99.996094 65.738281 C 103.140625 64.648438 108.417969 62.328125 110.398438 59.886719 C 103.042969 54.371094 93.449219 53.992188 85.324219 55.402344 C 70.398438 57.972656 57.0625 64.621094 45.488281 73.90625 C 28.941406 87.183594 18.023438 103.460938 10.078125 123.277344 C 0.375 147.847656 5.402344 171.054688 6.964844 173.890625 C 8.894531 177.394531 9.84375 173.636719 9.953125 172.660156 C 12.871094 157.734375 18.429688 144.582031 24.054688 130.578125 C 29.292969 117.535156 37.347656 106.578125 47.273438 96.902344 Z M 47.273438 96.902344 " fill-opacity="1" fill-rule="evenodd"/><path fill="#ffffff" d="M 52.917969 214.339844 C 47.457031 201.382812 45.460938 187.921875 45.699219 174.058594 C 46.046875 152.734375 51.855469 133.804688 61.210938 114.8125 C 62.675781 111.828125 64.785156 106.464844 64.476562 103.335938 C 55.359375 104.59375 48.292969 111.085938 43.503906 117.800781 C 34.722656 130.132812 29.921875 144.234375 28.246094 158.976562 C 25.84375 180.058594 29.558594 199.316406 37.851562 218.972656 C 48.265625 243.253906 68.164062 256.199219 71.277344 257.117188 C 75.117188 258.25 73.132812 254.914062 72.519531 254.144531 C 64.085938 241.496094 58.792969 228.230469 52.917969 214.339844 Z M 52.917969 214.339844 " fill-opacity="1" fill-rule="evenodd"/><path fill="#ffffff" d="M 184.105469 267.703125 C 169 265.929688 155.46875 261.378906 141.089844 256.824219 C 127.683594 252.59375 116.136719 245.390625 105.734375 236.230469 C 89.722656 222.144531 78.605469 205.457031 70.203125 186.023438 C 68.890625 182.980469 66.082031 174.683594 64.042969 174.753906 C 58.066406 173.402344 59.449219 193.449219 61.460938 201.449219 C 65.160156 216.140625 72.796875 228.929688 82.933594 239.75 C 97.441406 255.25 114.503906 264.894531 134.863281 271.304688 C 160.105469 279.125 182.851562 272.351562 185.574219 270.578125 C 188.910156 268.386719 185.085938 267.730469 184.105469 267.703125 Z M 184.105469 267.703125 " fill-opacity="1" fill-rule="evenodd"/><path fill="#ffffff" d="M 264.570312 198.617188 C 252.746094 208.179688 240.027344 214.660156 226.71875 221.78125 C 214.320312 228.398438 201.097656 231.625 187.277344 232.65625 C 165.996094 234.25 146.3125 230.535156 126.539062 222.953125 C 123.441406 221.765625 115.550781 217.96875 114.167969 219.476562 C 109.03125 222.800781 124.332031 235.828125 131.46875 239.988281 C 144.539062 247.609375 159.03125 251.085938 173.859375 251.410156 C 195.082031 251.882812 213.902344 246.421875 232.722656 236.355469 C 255.957031 223.777344 267.015625 202.761719 267.65625 199.578125 C 268.425781 195.671875 265.285156 197.933594 264.570312 198.617188 Z M 264.570312 198.617188 " fill-opacity="1" fill-rule="evenodd"/><path fill="#ffffff" d="M 274.933594 99.359375 C 272.90625 95.910156 272.054688 99.691406 271.984375 100.671875 C 269.472656 115.679688 264.25 128.957031 259 143.117188 C 254.128906 156.296875 246.363281 167.464844 236.6875 177.40625 C 221.832031 192.710938 204.617188 202.972656 184.804688 210.414062 C 181.691406 211.585938 173.273438 213.976562 173.230469 216.015625 C 171.597656 221.917969 191.675781 221.527344 199.773438 219.910156 C 214.613281 216.933594 227.765625 209.941406 239.089844 200.347656 C 255.289062 186.621094 265.757812 170.050781 273.160156 150.042969 C 282.21875 125.214844 276.566406 102.164062 274.933594 99.359375 Z M 274.933594 99.359375 " fill-opacity="1" fill-rule="evenodd"/><path fill="#ffffff" d="M 228.578125 59.96875 C 234.257812 72.828125 236.464844 86.261719 236.453125 100.125 C 236.453125 121.460938 231.242188 140.8125 222.210938 159.953125 C 220.785156 162.957031 216.414062 170.539062 217.8125 172.03125 C 220.746094 177.40625 234.886719 163.136719 239.566406 156.339844 C 248.152344 143.871094 252.71875 129.683594 254.15625 114.925781 C 256.222656 93.800781 252.1875 74.617188 243.574219 55.082031 C 232.78125 30.96875 212.660156 18.363281 209.53125 17.480469 C 205.679688 16.421875 207.71875 19.730469 208.34375 20.484375 C 216.972656 32.996094 222.488281 46.160156 228.578125 59.96875 Z M 228.578125 59.96875 " fill-opacity="1" fill-rule="evenodd"/><g clip-path="url(#8fec1b5189)"><path fill="#ffffff" d="M 102.484375 6.523438 C 117.492188 8.921875 130.828125 14.035156 145.011719 19.15625 C 158.234375 23.945312 169.472656 31.613281 179.5 41.191406 C 194.925781 55.933594 205.328125 73.066406 212.925781 92.824219 C 214.113281 95.921875 216.582031 104.328125 218.621094 104.34375 C 224.527344 105.933594 223.984375 85.84375 222.292969 77.773438 C 219.207031 62.945312 212.101562 49.847656 202.410156 38.621094 C 188.5625 22.535156 171.902344 12.191406 151.839844 4.945312 C 126.945312 -3.894531 103.933594 1.929688 101.140625 3.589844 C 97.707031 5.640625 101.503906 6.464844 102.484375 6.523438 Z M 102.484375 6.523438 " fill-opacity="1" fill-rule="evenodd"/></g><g clip-path="url(#17f6f14323)"><path fill="#ffffff" d="M 189.914062 160.671875 C 189.914062 154.75 189.902344 148.824219 189.929688 142.898438 C 189.929688 142.257812 189.804688 142.035156 189.109375 142.042969 C 186.324219 142.085938 183.535156 142.078125 180.75 142.050781 C 180.167969 142.042969 179.925781 142.140625 179.929688 142.808594 C 179.949219 154.65625 179.949219 166.503906 179.929688 178.355469 C 179.929688 179.019531 180.160156 179.121094 180.746094 179.117188 C 183.53125 179.089844 186.320312 179.078125 189.109375 179.121094 C 189.796875 179.132812 189.929688 178.914062 189.929688 178.269531 C 189.902344 172.402344 189.914062 166.539062 189.914062 160.671875 Z M 189.914062 160.671875 " fill-opacity="1" fill-rule="nonzero"/></g><g clip-path="url(#9b56664081)"><path fill="#ffffff" d="M 148.515625 142.015625 C 145.785156 142.042969 143.054688 142.054688 140.328125 142.011719 C 139.566406 141.996094 139.324219 142.167969 139.328125 142.980469 C 139.367188 148.847656 139.347656 154.714844 139.347656 160.582031 C 139.347656 166.480469 139.355469 172.378906 139.335938 178.277344 C 139.335938 178.902344 139.441406 179.164062 140.152344 179.152344 C 142.941406 179.109375 145.730469 179.117188 148.519531 179.148438 C 149.125 179.152344 149.332031 179.003906 149.332031 178.363281 C 149.3125 166.507812 149.3125 154.652344 149.332031 142.796875 C 149.332031 142.152344 149.117188 142.007812 148.515625 142.015625 Z M 148.515625 142.015625 " fill-opacity="1" fill-rule="nonzero"/></g><g clip-path="url(#94e4836bdc)"><path fill="#ffffff" d="M 176.21875 146.121094 C 176.21875 145.457031 175.96875 145.355469 175.390625 145.363281 C 172.722656 145.386719 170.054688 145.410156 167.386719 145.351562 C 166.519531 145.335938 166.234375 145.511719 166.242188 146.453125 C 166.296875 151.695312 166.269531 156.941406 166.269531 162.183594 C 166.269531 167.519531 166.28125 172.851562 166.253906 178.183594 C 166.25 178.90625 166.4375 179.164062 167.195312 179.152344 C 169.921875 179.113281 172.652344 179.125 175.382812 179.148438 C 175.953125 179.152344 176.222656 179.0625 176.21875 178.386719 C 176.199219 167.632812 176.199219 156.878906 176.21875 146.121094 Z M 176.21875 146.121094 " fill-opacity="1" fill-rule="nonzero"/></g><g clip-path="url(#669ef002d1)"><path fill="#ffffff" d="M 161.847656 154.496094 C 159.085938 154.539062 156.328125 154.53125 153.570312 154.5 C 152.960938 154.496094 152.753906 154.65625 152.757812 155.292969 C 152.777344 162.96875 152.777344 170.648438 152.757812 178.324219 C 152.757812 178.960938 152.964844 179.121094 153.570312 179.117188 C 156.332031 179.085938 159.089844 179.078125 161.847656 179.121094 C 162.574219 179.128906 162.808594 178.945312 162.800781 178.191406 C 162.761719 174.394531 162.78125 170.601562 162.78125 166.808594 C 162.78125 163.015625 162.761719 159.21875 162.800781 155.425781 C 162.808594 154.667969 162.574219 154.488281 161.847656 154.496094 Z M 161.847656 154.496094 " fill-opacity="1" fill-rule="nonzero"/></g><g clip-path="url(#2270e963ac)"><path fill="#ffffff" d="M 202.617188 159.769531 C 199.832031 159.800781 197.046875 159.808594 194.261719 159.769531 C 193.542969 159.757812 193.300781 159.933594 193.3125 160.691406 C 193.355469 163.589844 193.332031 166.492188 193.332031 169.394531 C 193.332031 172.355469 193.347656 175.3125 193.320312 178.273438 C 193.3125 178.917969 193.488281 179.160156 194.167969 179.152344 C 196.984375 179.121094 199.796875 179.121094 202.613281 179.152344 C 203.242188 179.15625 203.421875 178.933594 203.421875 178.324219 C 203.402344 172.40625 203.402344 166.484375 203.421875 160.5625 C 203.425781 159.933594 203.234375 159.761719 202.617188 159.769531 Z M 202.617188 159.769531 " fill-opacity="1" fill-rule="nonzero"/></g><path fill="#ffffff" d="M 163.664062 115.105469 C 163.667969 114.898438 163.679688 114.691406 163.671875 114.484375 C 163.542969 111.941406 161.394531 109.996094 159.058594 110.300781 C 155.648438 110.75 154.121094 113.824219 155.761719 116.941406 L 156.804688 118.019531 C 159.222656 119.492188 161.398438 118.996094 163.214844 116.5625 C 163.363281 116.078125 163.515625 115.59375 163.664062 115.105469 Z M 159.367188 116.628906 C 158.1875 116.644531 157.285156 115.777344 157.257812 114.601562 C 157.226562 113.417969 158.175781 112.425781 159.347656 112.421875 C 160.457031 112.414062 161.460938 113.382812 161.496094 114.484375 C 161.535156 115.621094 160.546875 116.617188 159.367188 116.632812 Z M 159.367188 116.628906 " fill-opacity="1" fill-rule="nonzero"/><g clip-path="url(#62945223bd)"><path fill="#ffffff" d="M 82.640625 162.984375 C 80.710938 163.410156 79.273438 165.1875 79.28125 167.210938 C 79.289062 169.25 80.78125 171.011719 82.8125 171.378906 C 84.84375 171.746094 86.808594 170.675781 87.535156 168.8125 C 88.273438 166.914062 87.761719 165.300781 86.417969 163.878906 L 85.085938 163.125 C 84.277344 162.933594 83.480469 162.800781 82.640625 162.984375 Z M 85.714844 167.246094 C 85.660156 168.421875 84.660156 169.328125 83.46875 169.285156 C 82.316406 169.238281 81.457031 168.300781 81.484375 167.113281 C 81.511719 165.96875 82.480469 165.023438 83.605469 165.046875 C 84.75 165.074219 85.765625 166.132812 85.714844 167.246094 Z M 85.714844 167.246094 " fill-opacity="1" fill-rule="nonzero"/></g><path fill="#ffffff" d="M 194.210938 109.621094 C 194.941406 109.957031 195.683594 110.179688 196.515625 110.164062 C 198.550781 110.121094 200.273438 108.714844 200.664062 106.707031 C 201.03125 104.828125 199.96875 102.75 198.261719 101.996094 C 196.34375 101.152344 194.105469 101.730469 192.957031 103.402344 C 191.730469 105.191406 191.953125 106.953125 193.113281 108.679688 Z M 196.511719 103.75 C 197.621094 103.792969 198.542969 104.773438 198.535156 105.910156 C 198.527344 107.128906 197.597656 108.046875 196.40625 108.019531 C 195.253906 107.988281 194.269531 106.972656 194.296875 105.84375 C 194.328125 104.746094 195.421875 103.710938 196.511719 103.75 Z M 196.511719 103.75 " fill-opacity="1" fill-rule="nonzero"/><path fill="#ffffff" d="M 182.640625 129.105469 C 184.832031 127.726562 185.210938 124.898438 183.511719 122.601562 L 182.382812 121.699219 C 180.511719 120.894531 178.789062 121.105469 177.238281 122.453125 L 176.367188 123.695312 C 176.292969 123.980469 176.210938 124.261719 176.148438 124.546875 C 175.75 126.292969 176.394531 128.007812 177.820312 129 C 179.300781 130.03125 181.105469 130.070312 182.640625 129.105469 Z M 178.164062 125.539062 C 178.164062 124.375 179.132812 123.417969 180.308594 123.417969 C 181.527344 123.421875 182.441406 124.328125 182.4375 125.535156 C 182.433594 126.664062 181.394531 127.675781 180.265625 127.648438 C 179.191406 127.621094 178.164062 126.589844 178.164062 125.535156 Z M 178.164062 125.539062 " fill-opacity="1" fill-rule="nonzero"/><path fill="#ffffff" d="M 116.558594 145.792969 C 114.75 145.242188 113.136719 145.570312 111.742188 146.871094 L 110.925781 148.21875 C 110.894531 148.363281 110.867188 148.507812 110.828125 148.652344 C 110.242188 150.832031 111.304688 152.984375 113.367188 153.785156 C 115.480469 154.605469 117.792969 153.734375 118.777344 151.695312 C 119.703125 149.777344 119.214844 148.085938 117.839844 146.574219 Z M 114.933594 151.953125 C 113.804688 151.9375 112.800781 150.902344 112.820312 149.777344 C 112.84375 148.613281 113.839844 147.660156 115.003906 147.6875 C 116.089844 147.710938 117.09375 148.730469 117.089844 149.804688 C 117.089844 150.925781 116.039062 151.96875 114.933594 151.953125 Z M 114.933594 151.953125 " fill-opacity="1" fill-rule="nonzero"/><path fill="#ffffff" d="M 132.054688 126.367188 C 131.941406 126.128906 131.832031 125.890625 131.707031 125.660156 C 130.890625 124.167969 129.664062 123.324219 127.933594 123.320312 C 126.183594 123.3125 124.835938 124.078125 124.054688 125.628906 C 123.144531 127.429688 123.550781 129.113281 124.777344 130.644531 L 126.011719 131.511719 C 126.972656 131.8125 127.945312 132.03125 128.941406 131.746094 C 130.878906 131.199219 131.875 129.832031 132.203125 127.90625 C 132.15625 127.394531 132.105469 126.878906 132.054688 126.367188 Z M 127.882812 129.71875 C 126.710938 129.710938 125.738281 128.738281 125.742188 127.578125 C 125.75 126.414062 126.730469 125.445312 127.898438 125.449219 C 129.003906 125.453125 129.964844 126.417969 129.984375 127.546875 C 130.003906 128.710938 129.023438 129.726562 127.882812 129.71875 Z M 127.882812 129.71875 " fill-opacity="1" fill-rule="nonzero"/><path fill="#ffffff" d="M 148.046875 125.703125 C 145.304688 124.324219 142.816406 125.175781 141.617188 127.902344 L 141.332031 129.328125 C 141.382812 129.648438 141.421875 129.972656 141.492188 130.289062 C 142.117188 133.03125 145.230469 134.4375 147.699219 133.113281 C 149.640625 132.070312 150.867188 129.351562 149.121094 126.703125 C 148.761719 126.371094 148.40625 126.039062 148.046875 125.703125 Z M 145.691406 131.476562 C 144.570312 131.492188 143.542969 130.460938 143.546875 129.332031 C 143.554688 128.132812 144.484375 127.21875 145.695312 127.230469 C 146.898438 127.238281 147.816406 128.179688 147.789062 129.378906 C 147.769531 130.472656 146.777344 131.460938 145.691406 131.476562 Z M 145.691406 131.476562 " fill-opacity="1" fill-rule="nonzero"/><path fill="#ffffff" d="M 100.714844 141.835938 C 100.203125 139.351562 97.792969 137.910156 95.34375 138.578125 C 92.378906 139.382812 90.90625 143.355469 93.777344 146.046875 L 95.066406 146.804688 C 98.136719 147.203125 99.402344 146.558594 100.691406 143.933594 C 100.75 143.402344 100.808594 142.867188 100.867188 142.335938 C 100.816406 142.167969 100.75 142.003906 100.714844 141.835938 Z M 98.648438 142.765625 C 98.617188 143.894531 97.652344 144.839844 96.53125 144.839844 C 95.371094 144.839844 94.390625 143.839844 94.410156 142.675781 C 94.425781 141.511719 95.417969 140.542969 96.574219 140.570312 C 97.730469 140.597656 98.683594 141.609375 98.648438 142.765625 Z M 98.648438 142.765625 " fill-opacity="1" fill-rule="nonzero"/><path fill="#ffffff" d="M 126.039062 171.902344 C 119.785156 171.910156 113.53125 171.910156 107.28125 171.898438 C 106.671875 171.894531 106.386719 171.972656 106.378906 172.699219 C 106.371094 173.480469 106.773438 173.457031 107.320312 173.453125 C 110.429688 173.441406 113.542969 173.449219 116.652344 173.449219 C 119.765625 173.449219 122.875 173.449219 125.988281 173.449219 C 126.511719 173.449219 127.046875 173.582031 127.058594 172.703125 C 127.066406 171.867188 126.605469 171.902344 126.039062 171.902344 Z M 126.039062 171.902344 " fill-opacity="1" fill-rule="nonzero"/><path fill="#ffffff" d="M 126.15625 174.925781 C 122.984375 174.9375 119.816406 174.933594 116.644531 174.933594 C 113.503906 174.933594 110.363281 174.945312 107.21875 174.921875 C 106.632812 174.917969 106.378906 175.03125 106.382812 175.691406 C 106.390625 176.316406 106.582031 176.488281 107.199219 176.484375 C 113.511719 176.464844 119.820312 176.464844 126.132812 176.480469 C 126.734375 176.484375 127.0625 176.390625 127.054688 175.667969 C 127.046875 174.96875 126.695312 174.921875 126.15625 174.925781 Z M 126.15625 174.925781 " fill-opacity="1" fill-rule="nonzero"/><path fill="#ffffff" d="M 107.125 164.0625 C 113.503906 164.042969 119.878906 164.042969 126.257812 164.0625 C 126.800781 164.0625 127.050781 163.964844 127.050781 163.339844 C 127.050781 162.71875 126.804688 162.613281 126.257812 162.617188 C 123.085938 162.640625 119.910156 162.628906 116.738281 162.628906 C 113.535156 162.628906 110.332031 162.636719 107.128906 162.621094 C 106.617188 162.617188 106.378906 162.710938 106.390625 163.292969 C 106.402344 163.847656 106.515625 164.066406 107.125 164.0625 Z M 107.125 164.0625 " fill-opacity="1" fill-rule="nonzero"/><path fill="#ffffff" d="M 107.285156 167.078125 C 113.574219 167.074219 119.863281 167.074219 126.148438 167.078125 C 126.644531 167.078125 127.046875 167.136719 127.058594 166.386719 C 127.070312 165.578125 126.621094 165.648438 126.101562 165.648438 C 122.988281 165.65625 119.871094 165.65625 116.757812 165.652344 C 113.613281 165.652344 110.46875 165.65625 107.328125 165.648438 C 106.800781 165.648438 106.371094 165.585938 106.382812 166.390625 C 106.394531 167.140625 106.789062 167.078125 107.285156 167.078125 Z M 107.285156 167.078125 " fill-opacity="1" fill-rule="nonzero"/><path fill="#ffffff" d="M 93.777344 146.046875 C 90.878906 151.738281 87.980469 157.433594 85.082031 163.125 C 85.667969 163.128906 86.085938 163.421875 86.414062 163.878906 C 87.386719 161.953125 88.355469 160.027344 89.328125 158.101562 C 91.238281 154.335938 93.152344 150.570312 95.066406 146.804688 C 94.523438 146.746094 94.027344 146.601562 93.777344 146.046875 Z M 93.777344 146.046875 " fill-opacity="1" fill-rule="nonzero"/><path fill="#ffffff" d="M 85.082031 163.125 L 86.414062 163.878906 C 86.085938 163.421875 85.667969 163.128906 85.082031 163.125 Z M 85.082031 163.125 " fill-opacity="1" fill-rule="nonzero"/><path fill="#ffffff" d="M 93.777344 146.046875 C 94.027344 146.601562 94.523438 146.746094 95.066406 146.804688 Z M 93.777344 146.046875 " fill-opacity="1" fill-rule="nonzero"/><path fill="#ffffff" d="M 124.777344 130.644531 L 116.558594 145.792969 C 117.164062 145.757812 117.546875 146.09375 117.839844 146.574219 L 126.011719 131.511719 C 125.433594 131.460938 125.019531 131.171875 124.777344 130.644531 Z M 124.777344 130.644531 " fill-opacity="1" fill-rule="nonzero"/><path fill="#ffffff" d="M 116.558594 145.792969 L 117.839844 146.574219 C 117.546875 146.09375 117.167969 145.757812 116.558594 145.792969 Z M 116.558594 145.792969 " fill-opacity="1" fill-rule="nonzero"/><path fill="#ffffff" d="M 124.777344 130.644531 C 125.023438 131.171875 125.433594 131.460938 126.011719 131.511719 Z M 124.777344 130.644531 " fill-opacity="1" fill-rule="nonzero"/><path fill="#ffffff" d="M 183.511719 122.601562 C 187.078125 118.273438 190.644531 113.949219 194.210938 109.621094 C 193.632812 109.558594 193.273438 109.234375 193.113281 108.679688 C 191.019531 111.191406 188.914062 113.695312 186.832031 116.214844 C 185.332031 118.03125 183.863281 119.871094 182.382812 121.699219 C 182.96875 121.734375 183.285156 122.109375 183.511719 122.601562 Z M 183.511719 122.601562 " fill-opacity="1" fill-rule="nonzero"/><path fill="#ffffff" d="M 194.210938 109.621094 L 193.113281 108.679688 C 193.273438 109.234375 193.632812 109.558594 194.210938 109.621094 Z M 194.210938 109.621094 " fill-opacity="1" fill-rule="nonzero"/><path fill="#ffffff" d="M 183.511719 122.601562 C 183.285156 122.109375 182.972656 121.734375 182.382812 121.699219 Z M 183.511719 122.601562 " fill-opacity="1" fill-rule="nonzero"/><path fill="#ffffff" d="M 177.238281 122.453125 C 176.941406 122.316406 176.640625 122.199219 176.355469 122.042969 C 172.125 119.734375 167.894531 117.421875 163.664062 115.109375 C 163.816406 115.6875 163.621094 116.160156 163.214844 116.566406 L 176.367188 123.695312 C 176.417969 123.117188 176.707031 122.699219 177.238281 122.453125 Z M 177.238281 122.453125 " fill-opacity="1" fill-rule="nonzero"/><path fill="#ffffff" d="M 163.664062 115.105469 C 163.515625 115.59375 163.363281 116.078125 163.214844 116.566406 C 163.617188 116.15625 163.816406 115.6875 163.664062 115.105469 Z M 163.664062 115.105469 " fill-opacity="1" fill-rule="nonzero"/><path fill="#ffffff" d="M 177.238281 122.453125 C 176.707031 122.699219 176.417969 123.113281 176.363281 123.695312 Z M 177.238281 122.453125 " fill-opacity="1" fill-rule="nonzero"/><path fill="#ffffff" d="M 111.742188 146.871094 L 100.867188 142.335938 C 100.96875 142.886719 101.113281 143.441406 100.691406 143.933594 C 101.835938 144.230469 102.875 144.789062 103.960938 145.238281 C 106.292969 146.203125 108.605469 147.222656 110.925781 148.21875 C 110.949219 147.621094 111.175781 147.140625 111.742188 146.871094 Z M 111.742188 146.871094 " fill-opacity="1" fill-rule="nonzero"/><path fill="#ffffff" d="M 110.925781 148.21875 L 111.742188 146.871094 C 111.175781 147.140625 110.949219 147.621094 110.925781 148.21875 Z M 110.925781 148.21875 " fill-opacity="1" fill-rule="nonzero"/><path fill="#ffffff" d="M 100.867188 142.335938 C 100.808594 142.867188 100.75 143.402344 100.691406 143.933594 C 101.113281 143.441406 100.96875 142.886719 100.867188 142.335938 Z M 100.867188 142.335938 " fill-opacity="1" fill-rule="nonzero"/><path fill="#ffffff" d="M 155.761719 116.941406 C 154.882812 117.9375 154.003906 118.929688 153.125 119.925781 C 151.429688 121.851562 149.738281 123.777344 148.046875 125.703125 C 148.636719 125.785156 148.921875 126.199219 149.121094 126.703125 L 156.804688 118.019531 C 156.164062 117.941406 155.871094 117.527344 155.761719 116.941406 Z M 155.761719 116.941406 " fill-opacity="1" fill-rule="nonzero"/><path fill="#ffffff" d="M 155.761719 116.941406 C 155.871094 117.53125 156.164062 117.941406 156.804688 118.019531 Z M 155.761719 116.941406 " fill-opacity="1" fill-rule="nonzero"/><path fill="#ffffff" d="M 148.046875 125.703125 C 148.40625 126.035156 148.765625 126.371094 149.121094 126.703125 C 148.921875 126.199219 148.636719 125.785156 148.046875 125.703125 Z M 148.046875 125.703125 " fill-opacity="1" fill-rule="nonzero"/><path fill="#ffffff" d="M 102.320312 162.804688 C 100.421875 162.804688 100.421875 162.804688 100.421875 164.667969 C 100.421875 166.652344 100.421875 166.652344 102.402344 166.652344 C 104.386719 166.652344 104.386719 166.652344 104.386719 164.851562 C 104.386719 162.804688 104.386719 162.804688 102.320312 162.804688 Z M 102.320312 162.804688 " fill-opacity="1" fill-rule="nonzero"/><path fill="#ffffff" d="M 102.351562 172.300781 C 100.421875 172.300781 100.421875 172.300781 100.421875 174.246094 C 100.421875 176.148438 100.421875 176.148438 102.367188 176.148438 C 104.386719 176.148438 104.386719 176.148438 104.386719 174.320312 C 104.386719 172.300781 104.386719 172.300781 102.351562 172.300781 Z M 102.351562 172.300781 " fill-opacity="1" fill-rule="nonzero"/><path fill="#ffffff" d="M 141.617188 127.902344 L 132.054688 126.367188 C 132.386719 126.851562 132.359375 127.375 132.203125 127.90625 L 141.328125 129.328125 C 141.171875 128.804688 141.167969 128.308594 141.617188 127.902344 Z M 141.617188 127.902344 " fill-opacity="1" fill-rule="nonzero"/><path fill="#ffffff" d="M 132.054688 126.367188 C 132.105469 126.878906 132.15625 127.394531 132.203125 127.90625 C 132.359375 127.375 132.386719 126.851562 132.054688 126.367188 Z M 132.054688 126.367188 " fill-opacity="1" fill-rule="nonzero"/><path fill="#ffffff" d="M 141.617188 127.902344 C 141.167969 128.308594 141.171875 128.804688 141.328125 129.328125 Z M 141.617188 127.902344 " fill-opacity="1" fill-rule="nonzero"/><path fill="#ffffff" d="M 96.375 117.933594 C 94.160156 117.933594 91.925781 117.941406 89.65625 117.941406 C 90.660156 125.246094 94.292969 129.871094 100.542969 132.128906 C 106.324219 134.21875 111.84375 133.445312 117.144531 129.210938 C 115.5625 127.644531 114.027344 126.113281 112.511719 124.609375 C 110.703125 125.988281 108.664062 126.675781 106.390625 126.675781 C 101.273438 126.675781 97.042969 122.871094 96.375 117.933594 Z M 96.375 117.933594 " fill-opacity="1" fill-rule="nonzero"/><g clip-path="url(#cdcd414344)"><path fill="#ffffff" d="M 116.496094 116.566406 C 116.5 117.679688 116.320312 118.761719 115.964844 119.816406 C 115.605469 120.871094 115.085938 121.839844 114.40625 122.722656 C 115.871094 124.222656 117.339844 125.726562 118.808594 127.230469 C 123.363281 122.257812 124.382812 115.453125 121.535156 109.511719 C 118.855469 103.929688 114.445312 100.699219 107.738281 99.886719 C 107.738281 102.167969 107.730469 104.378906 107.730469 106.546875 C 112.679688 107.203125 116.496094 111.4375 116.496094 116.566406 Z M 116.496094 116.566406 " fill-opacity="1" fill-rule="nonzero"/></g><path fill="#ffffff" d="M 104.6875 106.601562 L 104.6875 100.246094 C 97.039062 100.230469 90.140625 107.109375 90.089844 114.820312 L 96.433594 114.820312 C 97.164062 110.625 100.484375 107.316406 104.6875 106.601562 Z M 104.6875 106.601562 " fill-opacity="1" fill-rule="nonzero"/></svg>